<mxfile host="app.diagrams.net" modified="2023-05-12T13:25:03.014Z" agent="Mozilla/5.0 (Windows NT 10.0; Win64; x64; rv:109.0) Gecko/20100101 Firefox/113.0" version="21.2.9" etag="eIUXT4RfZKET6LH4_Cms" type="github">
  <diagram name="Page-1" id="x4RsuTLZqrWBxt4zUN54">
    <mxGraphModel>
      <root>
        <mxCell id="0" />
        <mxCell id="1" parent="0" />
      </root>
    </mxGraphModel>
  </diagram>
</mxfile>
